ply
format ascii 1.0
comment generated by CAD AI PHP
element vertex 256
property float x
property float y
property float z
end_header
0.00000000 0.00000000 0.00000000
100.00000000 0.00000000 0.00000000
100.00000000 0.00000000 0.00000000
100.00000000 50.00000000 0.00000000
100.00000000 50.00000000 0.00000000
0.00000000 50.00000000 0.00000000
0.00000000 50.00000000 0.00000000
0.00000000 0.00000000 0.00000000
25.00000000 25.00000000 0.00000000
75.00000000 25.00000000 0.00000000
5.00000000 44.00000000 0.00000000
0.00000000 0.00000000 0.00000000
100.00000000 0.00000000 0.00000000
100.00000000 0.00000000 0.00000000
100.00000000 50.00000000 0.00000000
100.00000000 50.00000000 0.00000000
0.00000000 50.00000000 0.00000000
0.00000000 50.00000000 0.00000000
0.00000000 0.00000000 0.00000000
25.00000000 25.00000000 0.00000000
75.00000000 25.00000000 0.00000000
5.00000000 44.00000000 0.00000000
0.00000000 0.00000000 0.00000000
100.00000000 0.00000000 0.00000000
100.00000000 0.00000000 0.00000000
100.00000000 50.00000000 0.00000000
100.00000000 50.00000000 0.00000000
0.00000000 50.00000000 0.00000000
0.00000000 50.00000000 0.00000000
0.00000000 0.00000000 0.00000000
25.00000000 25.00000000 0.00000000
75.00000000 25.00000000 0.00000000
5.00000000 44.00000000 0.00000000
0.00000000 0.00000000 0.00000000
100.00000000 0.00000000 0.00000000
100.00000000 0.00000000 0.00000000
100.00000000 50.00000000 0.00000000
100.00000000 50.00000000 0.00000000
0.00000000 50.00000000 0.00000000
0.00000000 50.00000000 0.00000000
0.00000000 0.00000000 0.00000000
25.00000000 25.00000000 0.00000000
75.00000000 25.00000000 0.00000000
5.00000000 44.00000000 0.00000000
0.00000000 0.00000000 0.00000000
100.00000000 0.00000000 0.00000000
100.00000000 0.00000000 0.00000000
100.00000000 50.00000000 0.00000000
100.00000000 50.00000000 0.00000000
0.00000000 50.00000000 0.00000000
0.00000000 50.00000000 0.00000000
0.00000000 0.00000000 0.00000000
25.00000000 25.00000000 0.00000000
75.00000000 25.00000000 0.00000000
5.00000000 44.00000000 0.00000000
0.00000000 0.00000000 0.00000000
100.00000000 0.00000000 0.00000000
100.00000000 0.00000000 0.00000000
100.00000000 50.00000000 0.00000000
100.00000000 50.00000000 0.00000000
0.00000000 50.00000000 0.00000000
0.00000000 50.00000000 0.00000000
0.00000000 0.00000000 0.00000000
25.00000000 25.00000000 0.00000000
75.00000000 25.00000000 0.00000000
5.00000000 44.00000000 0.00000000
0.00000000 0.00000000 0.00000000
100.00000000 0.00000000 0.00000000
100.00000000 0.00000000 0.00000000
100.00000000 50.00000000 0.00000000
100.00000000 50.00000000 0.00000000
0.00000000 50.00000000 0.00000000
0.00000000 50.00000000 0.00000000
0.00000000 0.00000000 0.00000000
25.00000000 25.00000000 0.00000000
75.00000000 25.00000000 0.00000000
5.00000000 44.00000000 0.00000000
0.00000000 0.00000000 0.00000000
100.00000000 0.00000000 0.00000000
100.00000000 0.00000000 0.00000000
100.00000000 50.00000000 0.00000000
100.00000000 50.00000000 0.00000000
0.00000000 50.00000000 0.00000000
0.00000000 50.00000000 0.00000000
0.00000000 0.00000000 0.00000000
25.00000000 25.00000000 0.00000000
75.00000000 25.00000000 0.00000000
5.00000000 44.00000000 0.00000000
0.00000000 0.00000000 0.00000000
100.00000000 0.00000000 0.00000000
100.00000000 0.00000000 0.00000000
100.00000000 50.00000000 0.00000000
100.00000000 50.00000000 0.00000000
0.00000000 50.00000000 0.00000000
0.00000000 50.00000000 0.00000000
0.00000000 0.00000000 0.00000000
25.00000000 25.00000000 0.00000000
75.00000000 25.00000000 0.00000000
5.00000000 44.00000000 0.00000000
0.00000000 0.00000000 0.00000000
100.00000000 0.00000000 0.00000000
100.00000000 0.00000000 0.00000000
100.00000000 50.00000000 0.00000000
100.00000000 50.00000000 0.00000000
0.00000000 50.00000000 0.00000000
0.00000000 50.00000000 0.00000000
0.00000000 0.00000000 0.00000000
25.00000000 25.00000000 0.00000000
75.00000000 25.00000000 0.00000000
5.00000000 44.00000000 0.00000000
0.00000000 0.00000000 0.00000000
100.00000000 0.00000000 0.00000000
100.00000000 0.00000000 0.00000000
100.00000000 50.00000000 0.00000000
100.00000000 50.00000000 0.00000000
0.00000000 50.00000000 0.00000000
0.00000000 50.00000000 0.00000000
0.00000000 0.00000000 0.00000000
25.00000000 25.00000000 0.00000000
75.00000000 25.00000000 0.00000000
5.00000000 44.00000000 0.00000000
0.00000000 0.00000000 0.00000000
100.00000000 0.00000000 0.00000000
100.00000000 0.00000000 0.00000000
100.00000000 50.00000000 0.00000000
100.00000000 50.00000000 0.00000000
0.00000000 50.00000000 0.00000000
0.00000000 50.00000000 0.00000000
0.00000000 0.00000000 0.00000000
25.00000000 25.00000000 0.00000000
75.00000000 25.00000000 0.00000000
5.00000000 44.00000000 0.00000000
0.00000000 0.00000000 0.00000000
100.00000000 0.00000000 0.00000000
100.00000000 0.00000000 0.00000000
100.00000000 50.00000000 0.00000000
100.00000000 50.00000000 0.00000000
0.00000000 50.00000000 0.00000000
0.00000000 50.00000000 0.00000000
0.00000000 0.00000000 0.00000000
25.00000000 25.00000000 0.00000000
75.00000000 25.00000000 0.00000000
5.00000000 44.00000000 0.00000000
0.00000000 0.00000000 0.00000000
100.00000000 0.00000000 0.00000000
100.00000000 0.00000000 0.00000000
100.00000000 50.00000000 0.00000000
100.00000000 50.00000000 0.00000000
0.00000000 50.00000000 0.00000000
0.00000000 50.00000000 0.00000000
0.00000000 0.00000000 0.00000000
25.00000000 25.00000000 0.00000000
75.00000000 25.00000000 0.00000000
5.00000000 44.00000000 0.00000000
0.00000000 0.00000000 0.00000000
100.00000000 0.00000000 0.00000000
100.00000000 0.00000000 0.00000000
100.00000000 50.00000000 0.00000000
100.00000000 50.00000000 0.00000000
0.00000000 50.00000000 0.00000000
0.00000000 50.00000000 0.00000000
0.00000000 0.00000000 0.00000000
25.00000000 25.00000000 0.00000000
75.00000000 25.00000000 0.00000000
5.00000000 44.00000000 0.00000000
0.00000000 0.00000000 0.00000000
100.00000000 0.00000000 0.00000000
100.00000000 0.00000000 0.00000000
100.00000000 50.00000000 0.00000000
100.00000000 50.00000000 0.00000000
0.00000000 50.00000000 0.00000000
0.00000000 50.00000000 0.00000000
0.00000000 0.00000000 0.00000000
25.00000000 25.00000000 0.00000000
75.00000000 25.00000000 0.00000000
5.00000000 44.00000000 0.00000000
0.00000000 0.00000000 0.00000000
100.00000000 0.00000000 0.00000000
100.00000000 0.00000000 0.00000000
100.00000000 50.00000000 0.00000000
100.00000000 50.00000000 0.00000000
0.00000000 50.00000000 0.00000000
0.00000000 50.00000000 0.00000000
0.00000000 0.00000000 0.00000000
25.00000000 25.00000000 0.00000000
75.00000000 25.00000000 0.00000000
5.00000000 44.00000000 0.00000000
0.00000000 0.00000000 0.00000000
100.00000000 0.00000000 0.00000000
100.00000000 0.00000000 0.00000000
100.00000000 50.00000000 0.00000000
100.00000000 50.00000000 0.00000000
0.00000000 50.00000000 0.00000000
0.00000000 50.00000000 0.00000000
0.00000000 0.00000000 0.00000000
25.00000000 25.00000000 0.00000000
75.00000000 25.00000000 0.00000000
5.00000000 44.00000000 0.00000000
0.00000000 0.00000000 0.00000000
100.00000000 0.00000000 0.00000000
100.00000000 0.00000000 0.00000000
100.00000000 50.00000000 0.00000000
100.00000000 50.00000000 0.00000000
0.00000000 50.00000000 0.00000000
0.00000000 50.00000000 0.00000000
0.00000000 0.00000000 0.00000000
25.00000000 25.00000000 0.00000000
75.00000000 25.00000000 0.00000000
5.00000000 44.00000000 0.00000000
0.00000000 0.00000000 0.00000000
100.00000000 0.00000000 0.00000000
100.00000000 0.00000000 0.00000000
100.00000000 50.00000000 0.00000000
100.00000000 50.00000000 0.00000000
0.00000000 50.00000000 0.00000000
0.00000000 50.00000000 0.00000000
0.00000000 0.00000000 0.00000000
25.00000000 25.00000000 0.00000000
75.00000000 25.00000000 0.00000000
5.00000000 44.00000000 0.00000000
0.00000000 0.00000000 0.00000000
100.00000000 0.00000000 0.00000000
100.00000000 0.00000000 0.00000000
100.00000000 50.00000000 0.00000000
100.00000000 50.00000000 0.00000000
0.00000000 50.00000000 0.00000000
0.00000000 50.00000000 0.00000000
0.00000000 0.00000000 0.00000000
25.00000000 25.00000000 0.00000000
75.00000000 25.00000000 0.00000000
5.00000000 44.00000000 0.00000000
0.00000000 0.00000000 0.00000000
100.00000000 0.00000000 0.00000000
100.00000000 0.00000000 0.00000000
100.00000000 50.00000000 0.00000000
100.00000000 50.00000000 0.00000000
0.00000000 50.00000000 0.00000000
0.00000000 50.00000000 0.00000000
0.00000000 0.00000000 0.00000000
25.00000000 25.00000000 0.00000000
75.00000000 25.00000000 0.00000000
5.00000000 44.00000000 0.00000000
0.00000000 0.00000000 0.00000000
100.00000000 0.00000000 0.00000000
100.00000000 0.00000000 0.00000000
100.00000000 50.00000000 0.00000000
100.00000000 50.00000000 0.00000000
0.00000000 50.00000000 0.00000000
0.00000000 50.00000000 0.00000000
0.00000000 0.00000000 0.00000000
25.00000000 25.00000000 0.00000000
75.00000000 25.00000000 0.00000000
5.00000000 44.00000000 0.00000000
0.00000000 0.00000000 0.00000000
100.00000000 0.00000000 0.00000000
100.00000000 0.00000000 0.00000000
