ply
format ascii 1.0
comment generated by CAD AI PHP
element vertex 256
property float x
property float y
property float z
end_header
0.00000000 0.00000000 0.00000000
100.00000000 0.00000000 0.00000000
100.00000000 50.00000000 0.00000000
0.00000000 50.00000000 0.00000000
0.00000000 0.00000000 10.00000000
100.00000000 50.00000000 10.00000000
0.00000000 0.00000000 0.00000000
100.00000000 0.00000000 0.00000000
100.00000000 50.00000000 0.00000000
0.00000000 50.00000000 0.00000000
0.00000000 0.00000000 10.00000000
100.00000000 50.00000000 10.00000000
0.00000000 0.00000000 0.00000000
100.00000000 0.00000000 0.00000000
100.00000000 50.00000000 0.00000000
0.00000000 50.00000000 0.00000000
0.00000000 0.00000000 10.00000000
100.00000000 50.00000000 10.00000000
0.00000000 0.00000000 0.00000000
100.00000000 0.00000000 0.00000000
100.00000000 50.00000000 0.00000000
0.00000000 50.00000000 0.00000000
0.00000000 0.00000000 10.00000000
100.00000000 50.00000000 10.00000000
0.00000000 0.00000000 0.00000000
100.00000000 0.00000000 0.00000000
100.00000000 50.00000000 0.00000000
0.00000000 50.00000000 0.00000000
0.00000000 0.00000000 10.00000000
100.00000000 50.00000000 10.00000000
0.00000000 0.00000000 0.00000000
100.00000000 0.00000000 0.00000000
100.00000000 50.00000000 0.00000000
0.00000000 50.00000000 0.00000000
0.00000000 0.00000000 10.00000000
100.00000000 50.00000000 10.00000000
0.00000000 0.00000000 0.00000000
100.00000000 0.00000000 0.00000000
100.00000000 50.00000000 0.00000000
0.00000000 50.00000000 0.00000000
0.00000000 0.00000000 10.00000000
100.00000000 50.00000000 10.00000000
0.00000000 0.00000000 0.00000000
100.00000000 0.00000000 0.00000000
100.00000000 50.00000000 0.00000000
0.00000000 50.00000000 0.00000000
0.00000000 0.00000000 10.00000000
100.00000000 50.00000000 10.00000000
0.00000000 0.00000000 0.00000000
100.00000000 0.00000000 0.00000000
100.00000000 50.00000000 0.00000000
0.00000000 50.00000000 0.00000000
0.00000000 0.00000000 10.00000000
100.00000000 50.00000000 10.00000000
0.00000000 0.00000000 0.00000000
100.00000000 0.00000000 0.00000000
100.00000000 50.00000000 0.00000000
0.00000000 50.00000000 0.00000000
0.00000000 0.00000000 10.00000000
100.00000000 50.00000000 10.00000000
0.00000000 0.00000000 0.00000000
100.00000000 0.00000000 0.00000000
100.00000000 50.00000000 0.00000000
0.00000000 50.00000000 0.00000000
0.00000000 0.00000000 10.00000000
100.00000000 50.00000000 10.00000000
0.00000000 0.00000000 0.00000000
100.00000000 0.00000000 0.00000000
100.00000000 50.00000000 0.00000000
0.00000000 50.00000000 0.00000000
0.00000000 0.00000000 10.00000000
100.00000000 50.00000000 10.00000000
0.00000000 0.00000000 0.00000000
100.00000000 0.00000000 0.00000000
100.00000000 50.00000000 0.00000000
0.00000000 50.00000000 0.00000000
0.00000000 0.00000000 10.00000000
100.00000000 50.00000000 10.00000000
0.00000000 0.00000000 0.00000000
100.00000000 0.00000000 0.00000000
100.00000000 50.00000000 0.00000000
0.00000000 50.00000000 0.00000000
0.00000000 0.00000000 10.00000000
100.00000000 50.00000000 10.00000000
0.00000000 0.00000000 0.00000000
100.00000000 0.00000000 0.00000000
100.00000000 50.00000000 0.00000000
0.00000000 50.00000000 0.00000000
0.00000000 0.00000000 10.00000000
100.00000000 50.00000000 10.00000000
0.00000000 0.00000000 0.00000000
100.00000000 0.00000000 0.00000000
100.00000000 50.00000000 0.00000000
0.00000000 50.00000000 0.00000000
0.00000000 0.00000000 10.00000000
100.00000000 50.00000000 10.00000000
0.00000000 0.00000000 0.00000000
100.00000000 0.00000000 0.00000000
100.00000000 50.00000000 0.00000000
0.00000000 50.00000000 0.00000000
0.00000000 0.00000000 10.00000000
100.00000000 50.00000000 10.00000000
0.00000000 0.00000000 0.00000000
100.00000000 0.00000000 0.00000000
100.00000000 50.00000000 0.00000000
0.00000000 50.00000000 0.00000000
0.00000000 0.00000000 10.00000000
100.00000000 50.00000000 10.00000000
0.00000000 0.00000000 0.00000000
100.00000000 0.00000000 0.00000000
100.00000000 50.00000000 0.00000000
0.00000000 50.00000000 0.00000000
0.00000000 0.00000000 10.00000000
100.00000000 50.00000000 10.00000000
0.00000000 0.00000000 0.00000000
100.00000000 0.00000000 0.00000000
100.00000000 50.00000000 0.00000000
0.00000000 50.00000000 0.00000000
0.00000000 0.00000000 10.00000000
100.00000000 50.00000000 10.00000000
0.00000000 0.00000000 0.00000000
100.00000000 0.00000000 0.00000000
100.00000000 50.00000000 0.00000000
0.00000000 50.00000000 0.00000000
0.00000000 0.00000000 10.00000000
100.00000000 50.00000000 10.00000000
0.00000000 0.00000000 0.00000000
100.00000000 0.00000000 0.00000000
100.00000000 50.00000000 0.00000000
0.00000000 50.00000000 0.00000000
0.00000000 0.00000000 10.00000000
100.00000000 50.00000000 10.00000000
0.00000000 0.00000000 0.00000000
100.00000000 0.00000000 0.00000000
100.00000000 50.00000000 0.00000000
0.00000000 50.00000000 0.00000000
0.00000000 0.00000000 10.00000000
100.00000000 50.00000000 10.00000000
0.00000000 0.00000000 0.00000000
100.00000000 0.00000000 0.00000000
100.00000000 50.00000000 0.00000000
0.00000000 50.00000000 0.00000000
0.00000000 0.00000000 10.00000000
100.00000000 50.00000000 10.00000000
0.00000000 0.00000000 0.00000000
100.00000000 0.00000000 0.00000000
100.00000000 50.00000000 0.00000000
0.00000000 50.00000000 0.00000000
0.00000000 0.00000000 10.00000000
100.00000000 50.00000000 10.00000000
0.00000000 0.00000000 0.00000000
100.00000000 0.00000000 0.00000000
100.00000000 50.00000000 0.00000000
0.00000000 50.00000000 0.00000000
0.00000000 0.00000000 10.00000000
100.00000000 50.00000000 10.00000000
0.00000000 0.00000000 0.00000000
100.00000000 0.00000000 0.00000000
100.00000000 50.00000000 0.00000000
0.00000000 50.00000000 0.00000000
0.00000000 0.00000000 10.00000000
100.00000000 50.00000000 10.00000000
0.00000000 0.00000000 0.00000000
100.00000000 0.00000000 0.00000000
100.00000000 50.00000000 0.00000000
0.00000000 50.00000000 0.00000000
0.00000000 0.00000000 10.00000000
100.00000000 50.00000000 10.00000000
0.00000000 0.00000000 0.00000000
100.00000000 0.00000000 0.00000000
100.00000000 50.00000000 0.00000000
0.00000000 50.00000000 0.00000000
0.00000000 0.00000000 10.00000000
100.00000000 50.00000000 10.00000000
0.00000000 0.00000000 0.00000000
100.00000000 0.00000000 0.00000000
100.00000000 50.00000000 0.00000000
0.00000000 50.00000000 0.00000000
0.00000000 0.00000000 10.00000000
100.00000000 50.00000000 10.00000000
0.00000000 0.00000000 0.00000000
100.00000000 0.00000000 0.00000000
100.00000000 50.00000000 0.00000000
0.00000000 50.00000000 0.00000000
0.00000000 0.00000000 10.00000000
100.00000000 50.00000000 10.00000000
0.00000000 0.00000000 0.00000000
100.00000000 0.00000000 0.00000000
100.00000000 50.00000000 0.00000000
0.00000000 50.00000000 0.00000000
0.00000000 0.00000000 10.00000000
100.00000000 50.00000000 10.00000000
0.00000000 0.00000000 0.00000000
100.00000000 0.00000000 0.00000000
100.00000000 50.00000000 0.00000000
0.00000000 50.00000000 0.00000000
0.00000000 0.00000000 10.00000000
100.00000000 50.00000000 10.00000000
0.00000000 0.00000000 0.00000000
100.00000000 0.00000000 0.00000000
100.00000000 50.00000000 0.00000000
0.00000000 50.00000000 0.00000000
0.00000000 0.00000000 10.00000000
100.00000000 50.00000000 10.00000000
0.00000000 0.00000000 0.00000000
100.00000000 0.00000000 0.00000000
100.00000000 50.00000000 0.00000000
0.00000000 50.00000000 0.00000000
0.00000000 0.00000000 10.00000000
100.00000000 50.00000000 10.00000000
0.00000000 0.00000000 0.00000000
100.00000000 0.00000000 0.00000000
100.00000000 50.00000000 0.00000000
0.00000000 50.00000000 0.00000000
0.00000000 0.00000000 10.00000000
100.00000000 50.00000000 10.00000000
0.00000000 0.00000000 0.00000000
100.00000000 0.00000000 0.00000000
100.00000000 50.00000000 0.00000000
0.00000000 50.00000000 0.00000000
0.00000000 0.00000000 10.00000000
100.00000000 50.00000000 10.00000000
0.00000000 0.00000000 0.00000000
100.00000000 0.00000000 0.00000000
100.00000000 50.00000000 0.00000000
0.00000000 50.00000000 0.00000000
0.00000000 0.00000000 10.00000000
100.00000000 50.00000000 10.00000000
0.00000000 0.00000000 0.00000000
100.00000000 0.00000000 0.00000000
100.00000000 50.00000000 0.00000000
0.00000000 50.00000000 0.00000000
0.00000000 0.00000000 10.00000000
100.00000000 50.00000000 10.00000000
0.00000000 0.00000000 0.00000000
100.00000000 0.00000000 0.00000000
100.00000000 50.00000000 0.00000000
0.00000000 50.00000000 0.00000000
0.00000000 0.00000000 10.00000000
100.00000000 50.00000000 10.00000000
0.00000000 0.00000000 0.00000000
100.00000000 0.00000000 0.00000000
100.00000000 50.00000000 0.00000000
0.00000000 50.00000000 0.00000000
0.00000000 0.00000000 10.00000000
100.00000000 50.00000000 10.00000000
0.00000000 0.00000000 0.00000000
100.00000000 0.00000000 0.00000000
100.00000000 50.00000000 0.00000000
0.00000000 50.00000000 0.00000000
0.00000000 0.00000000 10.00000000
100.00000000 50.00000000 10.00000000
0.00000000 0.00000000 0.00000000
100.00000000 0.00000000 0.00000000
100.00000000 50.00000000 0.00000000
0.00000000 50.00000000 0.00000000
